<svg width="183" height="55" viewBox="0 0 183 55" fill="none" xmlns="http://www.w3.org/2000/svg">
<path d="M2.21859 32V15.704H5.26659L9.97059 22.952V22.976L14.6986 15.704H17.7466V32H15.1546V19.64L11.1706 25.688H8.79459L4.81059 19.64V32H2.21859ZM139.68 32V15.704H142.272V29.552H152.16V32H139.68ZM155.442 32V18.152H149.73V15.704H163.746V18.152H158.034V32H155.442ZM172.771 15.704C178.363 15.704 181.627 19.088 181.627 23.84C181.627 28.568 178.171 32 172.771 32H166.867V15.704H172.771ZM172.579 29.528C176.347 29.528 178.795 27.752 178.915 23.84C178.915 20.312 176.803 18.152 172.555 18.152H169.483V29.528H172.579Z" fill="#00A3FF"/>
<path d="M27.3502 32.36C23.5582 32.36 20.8702 29.432 20.8702 25.808C20.8702 22.184 23.5582 19.232 27.3502 19.232C29.1502 19.232 30.6622 19.928 31.5262 20.792V19.592H34.0942V32H31.4782L31.5022 30.728C30.6862 31.568 29.3662 32.36 27.3502 32.36ZM27.5422 30.056C29.8462 30.056 31.6702 28.496 31.6702 25.784C31.6702 23.096 29.8462 21.536 27.5422 21.536C25.2142 21.536 23.4622 23.432 23.4622 25.784C23.4622 28.136 25.2142 30.056 27.5422 30.056ZM37.9552 32V19.568H40.5472V21.968C41.1232 20.456 42.9952 19.208 45.6352 19.208V21.344C42.4912 21.344 40.5952 23.144 40.5472 25.784V32H37.9552ZM53.8709 32.36C49.2389 32.36 46.8389 29.408 46.8389 25.784C46.8389 22.16 49.5989 19.232 53.6309 19.232C55.1669 19.232 56.9669 19.688 58.0709 20.72V23.384C58.0709 23.384 56.6069 21.512 53.6309 21.512C51.1829 21.512 49.3589 23.432 49.3589 25.784C49.3589 28.352 51.1109 30.08 53.8709 30.08C56.7749 30.08 58.3109 28.784 58.3109 28.784V31.184C57.1829 32.072 55.1429 32.36 53.8709 32.36ZM60.3445 32V30.224L68.1925 21.824H60.8245V19.568H71.5285V21.584L63.8965 29.744H71.7685V32H60.3445ZM75.4207 36.992L78.6607 30.56L73.4527 19.592H76.1647L80.0047 27.824L83.8447 19.592H86.5567L78.1807 36.992H75.4207ZM88.9552 37.088V19.592H91.5472V20.792C92.4112 19.928 93.9232 19.232 95.7232 19.232C99.5152 19.232 102.203 22.184 102.203 25.808C102.203 29.432 99.5152 32.36 95.7232 32.36C93.6832 32.36 92.3632 31.568 91.5472 30.68V37.088H88.9552ZM95.7712 30.056C98.0992 30.056 99.6832 28.16 99.6832 25.808C99.6832 23.456 98.0992 21.536 95.7712 21.536C93.4432 21.536 91.4032 23.096 91.4032 25.808C91.4032 28.496 93.4432 30.056 95.7712 30.056ZM110.984 32.36C106.616 32.36 104.12 29.36 104.12 25.784C104.12 22.064 106.976 19.232 110.816 19.232C114.416 19.232 116.504 22.208 116.504 25.208V26.408H106.592C106.88 28.328 108.224 30.056 111.032 30.056C114.08 30.056 115.928 28.76 115.952 28.76V31.088C115.952 31.088 114.608 32.36 110.984 32.36ZM106.712 24.392H113.912C113.816 23.432 113.192 21.344 110.48 21.344C107.768 21.344 106.856 23.432 106.712 24.392ZM128.185 32L123.121 25.808L121.969 26.792V32H119.377V15.704L121.969 15.272V23.96L127.201 19.592H130.561L125.041 24.224L131.521 32H128.185Z" fill="black"/>
<path d="M49.0584 43.5813V43.5813C62.8999 49.8305 77.9128 53.0626 93.0997 53.0626L94.6515 53.0626C106.517 53.0626 118.31 51.214 129.607 47.5833L142.058 43.5812" stroke="#00A3FF" stroke-width="2"/>
</svg>
